<?xml version="1.0" encoding="UTF-8"?>
<svg version="1.1" xmlns="http://www.w3.org/2000/svg" width="80" height="80">
<path d="M0 0 C0.66 0.66 1.32 1.32 2 2 C3.2684375 2.4640625 3.2684375 2.4640625 4.5625 2.9375 C5.366875 3.288125 6.17125 3.63875 7 4 C7.495 5.485 7.495 5.485 8 7 C8.99 7.495 8.99 7.495 10 8 C10.99 8.495 10.99 8.495 12 9 C12.495 10.485 12.495 10.485 13 12 C13.66 12 14.32 12 15 12 C15.82394416 13.36817297 16.63360897 14.74494911 17.4375 16.125 C17.88996094 16.89070313 18.34242187 17.65640625 18.80859375 18.4453125 C23.01699109 27.46922023 23.15510164 43.74835702 19.765625 53.07421875 C18.35560809 55.96754552 17.04550277 58.5165307 15 61 C13.515 61.495 13.515 61.495 12 62 C11.67 62.66 11.34 63.32 11 64 C10.67 64.66 10.34 65.32 10 66 C8.515 66.495 8.515 66.495 7 67 C7 67.66 7 68.32 7 69 C-2.38848921 74.84172662 -2.38848921 74.84172662 -8 74 C-9 73 -9 73 -9.09765625 69.62109375 C-9.09098369 68.22652923 -9.07902532 66.83198257 -9.0625 65.4375 C-9.05798828 64.72658203 -9.05347656 64.01566406 -9.04882812 63.28320312 C-9.03700864 61.52209987 -9.01907263 59.76103964 -9 58 C-9.66 58 -10.32 58 -11 58 C-11.33 56.35 -11.66 54.7 -12 53 C-10.96875 52.7525 -9.9375 52.505 -8.875 52.25 C-3.4465184 50.68958626 1.04873453 47.91877578 4 43 C4 42.34 4 41.68 4 41 C4.66 41 5.32 41 6 41 C6 37.37 6 33.74 6 30 C5.34 30 4.68 30 4 30 C1.97092833 26.6853333 1.87257867 24.5684021 2.375 20.75 C2.48585937 19.85796875 2.59671875 18.9659375 2.7109375 18.046875 C2.80632813 17.37140625 2.90171875 16.6959375 3 16 C1.68 15.34 0.36 14.68 -1 14 C-1 14.66 -1 15.32 -1 16 C-7.5 19 -7.5 19 -12 19 C-12 18.34 -12 17.68 -12 17 C-16.29 17 -20.58 17 -25 17 C-25.33 17.66 -25.66 18.32 -26 19 C-29.71888239 18.49287967 -32.73454239 17.88391785 -36 16 C-36 15.34 -36 14.68 -36 14 C-37.98 14.99 -37.98 14.99 -40 16 C-39.90460937 16.69867187 -39.80921875 17.39734375 -39.7109375 18.1171875 C-39.60007812 19.02726562 -39.48921875 19.93734375 -39.375 20.875 C-39.20097656 22.23238281 -39.20097656 22.23238281 -39.0234375 23.6171875 C-39.01570313 24.40351563 -39.00796875 25.18984375 -39 26 C-39.66 26.66 -40.32 27.32 -41 28 C-41 28.66 -41 29.32 -41 30 C-41.66 30 -42.32 30 -43 30 C-43 33.63 -43 37.26 -43 41 C-42.34 41 -41.68 41 -41 41 C-40.7525 41.556875 -40.505 42.11375 -40.25 42.6875 C-37.47418508 47.82275761 -35.39771917 50.12137505 -29.75 51.8125 C-28.17105486 52.22548999 -26.58887641 52.62703855 -25 53 C-25.59861742 55.35171131 -26.26924352 57.6859378 -27 60 C-29.24512262 61.12256131 -30.51456649 61.13413762 -33 61.125 C-34.051875 61.12886719 -34.051875 61.12886719 -35.125 61.1328125 C-37 61 -37 61 -39 60 C-38.505 60.45375 -38.01 60.9075 -37.5 61.375 C-36 63 -36 63 -36 65 C-31.545 64.505 -31.545 64.505 -27 64 C-27.33 66.97 -27.66 69.94 -28 73 C-31.35038257 73.83759564 -33.7295226 74.24052591 -37 73 C-37.66 72.34 -38.32 71.68 -39 71 C-39.825 70.71125 -40.65 70.4225 -41.5 70.125 C-44.5265222 68.76306501 -44.63248798 67.90596304 -46 65 C-47.65385233 63.65080468 -49.321702 62.31866272 -51 61 C-57.79863037 53.8014502 -58.50518758 46.00799384 -58.4375 36.5625 C-58.45748047 35.57701172 -58.47746094 34.59152344 -58.49804688 33.57617188 C-58.49318512 26.23978912 -57.37338971 19.37338971 -52 14 C-51.195625 13.21625 -50.39125 12.4325 -49.5625 11.625 C-47.06269627 9.19030698 -47.06269627 9.19030698 -45.5 6.9375 C-42.07588774 2.51468833 -38.33307004 0.43582655 -33 -1 C-32.34128906 -1.185625 -31.68257812 -1.37125 -31.00390625 -1.5625 C-21.41108962 -4.02482726 -9.05544596 -4.52772298 0 0 Z M-47 52 C-46.34 52.66 -45.68 53.32 -45 54 C-44.67 53.34 -44.34 52.68 -44 52 C-44.99 52 -45.98 52 -47 52 Z M-41 57 C-41.33 57.66 -41.66 58.32 -42 59 C-41.34 59 -40.68 59 -40 59 C-40.33 58.34 -40.66 57.68 -41 57 Z " fill="#E8E8E8" transform="translate(58,4)"/>
<path d="" fill="#000000" transform="translate(0,0)"/>
<path d="" fill="#000000" transform="translate(0,0)"/>
<path d="" fill="#000000" transform="translate(0,0)"/>
<path d="" fill="#000000" transform="translate(0,0)"/>
<path d="" fill="#000000" transform="translate(0,0)"/>
<path d="" fill="#000000" transform="translate(0,0)"/>
<path d="" fill="#000000" transform="translate(0,0)"/>
<path d="" fill="#000000" transform="translate(0,0)"/>
<path d="" fill="#000000" transform="translate(0,0)"/>
<path d="" fill="#000000" transform="translate(0,0)"/>
<path d="" fill="#000000" transform="translate(0,0)"/>
<path d="" fill="#000000" transform="translate(0,0)"/>
<path d="" fill="#000000" transform="translate(0,0)"/>
<path d="" fill="#000000" transform="translate(0,0)"/>
<path d="" fill="#000000" transform="translate(0,0)"/>
<path d="" fill="#000000" transform="translate(0,0)"/>
<path d="" fill="#000000" transform="translate(0,0)"/>
<path d="" fill="#000000" transform="translate(0,0)"/>
<path d="" fill="#000000" transform="translate(0,0)"/>
<path d="" fill="#000000" transform="translate(0,0)"/>
<path d="" fill="#000000" transform="translate(0,0)"/>
<path d="" fill="#000000" transform="translate(0,0)"/>
<path d="" fill="#000000" transform="translate(0,0)"/>
<path d="" fill="#000000" transform="translate(0,0)"/>
<path d="" fill="#000000" transform="translate(0,0)"/>
<path d="" fill="#000000" transform="translate(0,0)"/>
<path d="" fill="#000000" transform="translate(0,0)"/>
<path d="" fill="#000000" transform="translate(0,0)"/>
<path d="" fill="#000000" transform="translate(0,0)"/>
<path d="" fill="#000000" transform="translate(0,0)"/>
<path d="" fill="#000000" transform="translate(0,0)"/>
<path d="" fill="#000000" transform="translate(0,0)"/>
<path d="" fill="#000000" transform="translate(0,0)"/>
</svg>
